<svg id="wave" style="transform:rotate(180deg); transition: 0.3s" viewBox="0 0 1440 230" version="1.1" xmlns="http://www.w3.org/2000/svg"><defs><linearGradient id="sw-gradient-0" x1="0" x2="0" y1="1" y2="0"><stop stop-color="rgba(243, 106, 62, 1)" offset="0%"></stop><stop stop-color="rgba(255, 179, 11, 1)" offset="100%"></stop></linearGradient></defs><path style="transform:translate(0, 0px); opacity:1" fill="url(#sw-gradient-0)" d="M0,23L48,49.8C96,77,192,130,288,130.3C384,130,480,77,576,80.5C672,84,768,146,864,141.8C960,138,1056,69,1152,53.7C1248,38,1344,77,1440,76.7C1536,77,1632,38,1728,23C1824,8,1920,15,2016,15.3C2112,15,2208,8,2304,7.7C2400,8,2496,15,2592,15.3C2688,15,2784,8,2880,34.5C2976,61,3072,123,3168,149.5C3264,176,3360,169,3456,157.2C3552,146,3648,130,3744,138C3840,146,3936,176,4032,191.7C4128,207,4224,207,4320,180.2C4416,153,4512,100,4608,65.2C4704,31,4800,15,4896,30.7C4992,46,5088,92,5184,126.5C5280,161,5376,184,5472,161C5568,138,5664,69,5760,34.5C5856,0,5952,0,6048,15.3C6144,31,6240,61,6336,76.7C6432,92,6528,92,6624,92C6720,92,6816,92,6864,92L6912,92L6912,230L6864,230C6816,230,6720,230,6624,230C6528,230,6432,230,6336,230C6240,230,6144,230,6048,230C5952,230,5856,230,5760,230C5664,230,5568,230,5472,230C5376,230,5280,230,5184,230C5088,230,4992,230,4896,230C4800,230,4704,230,4608,230C4512,230,4416,230,4320,230C4224,230,4128,230,4032,230C3936,230,3840,230,3744,230C3648,230,3552,230,3456,230C3360,230,3264,230,3168,230C3072,230,2976,230,2880,230C2784,230,2688,230,2592,230C2496,230,2400,230,2304,230C2208,230,2112,230,2016,230C1920,230,1824,230,1728,230C1632,230,1536,230,1440,230C1344,230,1248,230,1152,230C1056,230,960,230,864,230C768,230,672,230,576,230C480,230,384,230,288,230C192,230,96,230,48,230L0,230Z"></path><defs><linearGradient id="sw-gradient-1" x1="0" x2="0" y1="1" y2="0"><stop stop-color="rgba(243, 106, 62, 1)" offset="0%"></stop><stop stop-color="rgba(255, 179, 11, 1)" offset="100%"></stop></linearGradient></defs><path style="transform:translate(0, 50px); opacity:0.9" fill="url(#sw-gradient-1)" d="M0,207L48,195.5C96,184,192,161,288,134.2C384,107,480,77,576,61.3C672,46,768,46,864,38.3C960,31,1056,15,1152,34.5C1248,54,1344,107,1440,107.3C1536,107,1632,54,1728,53.7C1824,54,1920,107,2016,111.2C2112,115,2208,69,2304,53.7C2400,38,2496,54,2592,61.3C2688,69,2784,69,2880,61.3C2976,54,3072,38,3168,34.5C3264,31,3360,38,3456,46C3552,54,3648,61,3744,76.7C3840,92,3936,115,4032,115C4128,115,4224,92,4320,99.7C4416,107,4512,146,4608,161C4704,176,4800,169,4896,164.8C4992,161,5088,161,5184,153.3C5280,146,5376,130,5472,130.3C5568,130,5664,146,5760,130.3C5856,115,5952,69,6048,61.3C6144,54,6240,84,6336,88.2C6432,92,6528,69,6624,49.8C6720,31,6816,15,6864,7.7L6912,0L6912,230L6864,230C6816,230,6720,230,6624,230C6528,230,6432,230,6336,230C6240,230,6144,230,6048,230C5952,230,5856,230,5760,230C5664,230,5568,230,5472,230C5376,230,5280,230,5184,230C5088,230,4992,230,4896,230C4800,230,4704,230,4608,230C4512,230,4416,230,4320,230C4224,230,4128,230,4032,230C3936,230,3840,230,3744,230C3648,230,3552,230,3456,230C3360,230,3264,230,3168,230C3072,230,2976,230,2880,230C2784,230,2688,230,2592,230C2496,230,2400,230,2304,230C2208,230,2112,230,2016,230C1920,230,1824,230,1728,230C1632,230,1536,230,1440,230C1344,230,1248,230,1152,230C1056,230,960,230,864,230C768,230,672,230,576,230C480,230,384,230,288,230C192,230,96,230,48,230L0,230Z"></path></svg>